/* XPM */
static char *_1156505e2d54da4f0e37f5480844ea2sxi6l4itwpAhYiu6[] = {
/* columns rows colors chars-per-pixel */
"64 64 223 2 ",
"   c #000004",
".  c #02000D",
"X  c #0F090E",
"o  c #060311",
"O  c #090615",
"+  c #0D0C1A",
"@  c #101016",
"#  c #13111E",
"$  c #22151A",
"%  c #141422",
"&  c #181825",
"*  c #1C1D2A",
"=  c #261D26",
"-  c #1F202D",
";  c #26232E",
":  c #34252A",
">  c #353B2E",
",  c #232532",
"<  c #292936",
"1  c #2A2C39",
"2  c #2E3330",
"3  c #2C333B",
"4  c #373739",
"5  c #4A2D2E",
"6  c #4D312F",
"7  c #492E31",
"8  c #4D3234",
"9  c #463935",
"0  c #533333",
"q  c #5A3637",
"w  c #543937",
"e  c #5C3738",
"r  c #543B3B",
"t  c #5E3A3A",
"y  c #643C3C",
"u  c #683F3E",
"i  c #1F442B",
"p  c #24452C",
"a  c #29492D",
"s  c #314D2F",
"d  c #2A532F",
"f  c #29572E",
"g  c #294A31",
"h  c #384732",
"j  c #265332",
"k  c #2B5331",
"l  c #2C5B32",
"z  c #355633",
"x  c #3C5433",
"c  c #335B32",
"v  c #376734",
"b  c #346836",
"n  c #434334",
"m  c #494737",
"M  c #5A483C",
"N  c #435335",
"B  c #475A36",
"V  c #56553C",
"C  c #64433D",
"Z  c #6A413F",
"A  c #63483D",
"S  c #466634",
"D  c #57683A",
"F  c #477937",
"G  c #557832",
"H  c #2F3440",
"J  c #323541",
"K  c #363A46",
"L  c #393A45",
"P  c #3A3E49",
"I  c #443E47",
"U  c #543E41",
"Y  c #3C414D",
"T  c #3E4652",
"R  c #3F6346",
"E  c #4C4347",
"W  c #43434E",
"Q  c #57474A",
"!  c #4A534B",
"~  c #434651",
"^  c #454A55",
"/  c #494D58",
"(  c #5A4D51",
")  c #4C525D",
"_  c #52545C",
"`  c #5C5459",
"'  c #6D4240",
"]  c #6C4A42",
"[  c #634B48",
"{  c #724643",
"}  c #754944",
"|  c #794B46",
" . c #7E4E48",
".. c #6A5746",
"X. c #775648",
"o. c #7D5449",
"O. c #645354",
"+. c #675859",
"@. c #765C55",
"#. c #516548",
"$. c #79684B",
"%. c #746751",
"&. c #4E5863",
"*. c #555862",
"=. c #545B65",
"-. c #555E69",
";. c #5A5F6A",
":. c #675D61",
">. c #546863",
",. c #56606B",
"<. c #5B636D",
"1. c #597265",
"2. c #5C6671",
"3. c #5E6973",
"4. c #62646D",
"5. c #6C666A",
"6. c #6B666C",
"7. c #736768",
"8. c #72726D",
"9. c #616671",
"0. c #636B75",
"q. c #6A6C75",
"w. c #646E79",
"e. c #696F79",
"r. c #716D73",
"t. c #66717A",
"y. c #6B737D",
"u. c #73737B",
"i. c #797579",
"p. c #804F4A",
"a. c #84534B",
"s. c #88564D",
"d. c #855B4D",
"f. c #8C5A4F",
"g. c #8E5C50",
"h. c #915E51",
"j. c #83634E",
"k. c #8A6653",
"l. c #956253",
"z. c #9A6655",
"x. c #936C55",
"c. c #9C6957",
"v. c #9E6A58",
"b. c #8C7A54",
"n. c #96755A",
"m. c #9C7459",
"M. c #A26E59",
"N. c #A5735C",
"B. c #AA755E",
"V. c #A37B5D",
"C. c #AA795F",
"Z. c #807B7F",
"A. c #A57E60",
"S. c #AE7B61",
"D. c #B17E62",
"F. c #5D8135",
"G. c #6D847D",
"H. c #AD8262",
"J. c #B58365",
"K. c #B98767",
"L. c #B98967",
"P. c #BC8B69",
"I. c #BC906A",
"U. c #C08F6B",
"Y. c #C4936D",
"T. c #C79770",
"R. c #CB9C72",
"E. c #CFA074",
"W. c #D2A376",
"Q. c #D6A678",
"!. c #D8A779",
"~. c #6D7680",
"^. c #6F7983",
"/. c #707680",
"(. c #737B85",
"). c #7B7C84",
"_. c #757F89",
"`. c #797F88",
"'. c #817E84",
"]. c #77828B",
"[. c #7C838C",
"{. c #7D8790",
"}. c #7E8891",
"|. c #848288",
" X c #82858C",
".X c #848B94",
"XX c #858C96",
"oX c #8A8D95",
"OX c #879199",
"+X c #8C949D",
"@X c #91959C",
"#X c #94989F",
"$X c #8E97A0",
"%X c #8F99A1",
"&X c #9097A1",
"*X c #949BA4",
"=X c #9A9EA5",
"-X c #979EA8",
";X c #989FA9",
":X c #9BA1A7",
">X c #97A1AA",
",X c #9BA2AB",
"<X c #9FA8B1",
"1X c #A2A8AF",
"2X c #A4ABB3",
"3X c #A9AEB5",
"4X c #A6AFB8",
"5X c #ABB0B7",
"6X c #ACB4BB",
"7X c #B3B7BC",
"8X c #B5BCC3",
"9X c #B8BCC3",
"0X c #BBC1C6",
"qX c #BDC4C9",
"wX c #C2C8CD",
"eX c #C6CDD2",
"rX c #CACDD3",
"tX c #CCD2D8",
"yX c #D4D7DD",
"uX c #D8DDE2",
"iX c #DEE3E8",
"pX c #E3E9ED",
"aX c #ECF0F4",
/* pixels */
"iXuXOX*X*X*X*X*X=X%X- y.,X*X*X*X*X*X>X^.o o . 7X5X+X*X*X*X*X;X@X+X*X*X*X*X*X>X(.+ (.2X*X*X*X*X*X*X}.-.2.)   ~ .X-.0X,X*X*X*X+X3.",
"pXoX-.>X*X*X*X-X.Xt., t.,X*X*X*X*X*X>X.X+ o   oX6X+X*X*X*X*X*X>X*X*X*X*X*X*XOX0.* q.,X*X*X*X*X*X>X(.=.2./ O 8XyX*X>X*X*X*X*X*X.X",
"(.-.$X*X*X*X*X+X<.2.J t.,X*X*X*X-X;X%X{.o 1 3 ) 6X+X*X*X*X*X*X*X*X,X>X[.[.XX[.e.& ) >X*X>X>X>X*XOXt.<.3.1 , yXtX4X$X*X*X*X*X*X*X",
"OX>X-X*X*X*X*Xt.-.2.Y .X>X*X>X*X}.2.) =./ `.+XP ,X*X*X*X*X*X*X>X%X<.( k.k.k.x.k.4 & J Y K K P 1 * * ; %   1 yX4X$X*X*X*X*X*X*X*X",
"-X*X*X*X>X,X*X<.,.<.Y $X*X+Xt.T P q.oX6XwXwXqXJ w.*X*X*X*X*X;X[.H E A.Q.Q.Q.W.Y.X.@XXX[.(.(.(.(._.`.) ^ 0.W 6X*X*X*X*X*X*X*X*X*X",
"*X*X;XOXt.,.;.<.2.-.+ , ^ P < = ).8X,X*X+XOX-X~ J [.*X*X*X*X$X^ _...D.P.P.P.S.P.d.oX*X>X,X>X,X>X-X<X;.9.[.K *X;X*X*X*X*X*X*X*X*X",
"+X>XOX0.&.&.-.3.&.% ).@XoX+X1X+XoX*X*X*X*X*X<X9.(.2X*X*XOX>X_./ i.] M.B.B.N.c.K.k.u. X*X*X*X*X-X,X*X+X1 # + &.(.,X*X*X*X*X*X*X*X",
") ~.<.,.<.<.2.-.# oXpXeX2X*X*XOX.X-X*X*X*X*X>X[.=.,X*Xq.#.4.( k.H.J.z.N.M.M.z.L.Y.m.j.).*X*X*X<.^ w.y.<.* _ ;X=._.>X*X*X*X*X*X*X",
". * 2.,.,.<.<.. I pXXXOX&X*X*XOX0.>X*X*X*X*X*X%XY (.7...S D C.P.T.J.f.h.h.l.l.T.W.Q.Y.@.oX*X,XP 4.8X1X2X^ 3X6X1X^ [.-X*X*X*X*X&X",
". . P 0.2.<.# + 2X4X$X*X*X*X*X*XP +X*X*X*X*X*X*X5.j.P.Y.$.G j.z.N.D.M.f.a.N.J.Y.T.P.P.X..X*X,X=.XX>X&X*XJ *X*X*X+X[.>X*X*X*X*X(.",
"&     T ) % J OX,X&X*X*X*X*X&X4X(.[.;X*X*X*X*Xr.m.Y.Y.C...S X.f.g.g.l.c.z.B.D.J.B.B.K.@.oX*X*X1 J %X,X.X~ 3X*X*X*X,X(.[.;X*X*Xt.",
"- L ~ .   , 2X*X*X*X*X*X*X*X*X*X-X*X*X*X*X*X*X+.C.L.B.M...S X.l.g.s.c.h.s.v.M.M.z.z.k. X*X*XOX X,X4X[.<.*X>X*X*X*X*X>X>X*X*X+X<.",
"y.eX6X=.  / 5X+X*X*X*X*X*X*X*X*X*X*X*X*X*X*X*X:.C.P.C.z.S B s.c.X.} l.f. .a.a.f.g.X.|.*X*X*X*X>X*X<X4.P 6X&X*X*X*X*X>X*X*X-X].-.",
"iX*X&X,XJ 1 <X*X*X*X*X*X*X*X*X*X*X*X*X*X+X+X7.n.R.T.S.j.v x o.] 4. XO.h.z.c.s.S.C.O.*X*X*X*X*X*X*X,Xt._ ,X*X*X*X*X*X*X*X*X*Xw.-.",
"9X+X*X-Xy.* XX>X*X*X*X*X*X*X*X*X*X*X*X>Xe.@.Y.Q.R.J.M.V l v B w ~ <XO.l.N.S.c.K.J.@.`. X*X*X*X*X*X,X;.[.>X*X*X*X*X*X*X*X*X-Xt.<.",
"1X>X<X}.2., _ 2X*X*X*X*X*X*X&XOX*X*X*X*Xr.V.Y.Y.V.c.j.c p b F x - OXO.f.v.M.z.K.K.V.x.k.i.+X*X*X*XOX) -X*X*X*X*X*X*X*X>X>X[.-.1 ",
"_.t.<.y.*Xt.K >X*X*X*X*X*X*X*X*X*X*X*X*X6.m.P.b.D B x z 9 d l v =.&.O. .s.l.s.S.T.W.Q.W.V.@.u.+X<X-.0.,X*X*X*X*X*X*X$X;.L P Y ; ",
"t.<.[.%X*XOX% ).2X*X;X,X>X*X*X*X*X*X*X*X6.m.H.D F v f > m c s m [.J ( |  .g.l.z.J.T.R.T.W.R.A.i.+X< (.>X*X*X*X*X*X4X(.K .X+X*X>X",
"*X%X2X5X3X6X) W =X.X{.9.t..X%X*X>X>X>X*X6.m.H.m.N j v p F v k 9 `.% ( | a.c.M.l.f.l.N.T.W.W.Q.H.E # OX*X;X=X,X>X_.<.* [.2X>X>X>X",
"&X9XeX6X6X6X8X3X*X_ & W W ) &.y.9.-.2.~.4.[ B #.c a c p c > f p ` E ] } | s.s.s. .a.l.N.T.W.R.H.= . -.t.(.{.y.K 4 4.9.:XOX9./._.",
"uXpX>X+X$X+X+X*X,X.X~ yXwXqX7X3XXXw.~ % % X n c m w h d m n j v N ]  .u ' } | } { o.M.z.l.J.P.C.7.=X9X3X:X[.+ |.5X8X4X>X*XXX.Xy.",
"aX2X$X*X*X*X*X*X&X,X9. X*X+X*X*X*X,X<XK @ *.o.x.f.{ h d 9 c a g z t u ] ] } } Z y u h.M.h.a.C.S.+.,X*X*X;X+XK +X>X+X&X*X*X*X>X,X",
"7X@X*X*X*X*X*X*X*X,X9.9.2X*X*X*X*XOX1.S G #.m.B.a.C k f n a s 9 C { { a.s.s.a.}  .{ } a.| a.P.R.V.7.*X,X,X{.3 oX>X*X*X*X*X*X*X{.",
"*X*X*X*X*X*X*X*X*X*Xy.) OX*X*X*X*X.X#.%.$.D D X.] n a l v i v x { ' ' |  . .{ ' a.f.a.{ a.P.W.Q.Y.} _ ~ K P J >X*X*X*X*X*X+X_.,.",
"*X*X*X*X*X*X*X*X*X%X5X-.w.,X*X*X*Xi.H.R.R.m.x c z s 9 d a > k d r u y Z ' ' y y { a.| } K.W.W.W.S.] 2 / t..X) .X*X*X*X*X*Xt.=.,.",
"*XOX*X*X*X*X*X*X*X*X,X0.0.,X).).r.V.Q.W.T.v.] n h 9 h d w M g h C  . .Z y y Z u u { { { T.W.W.K.z.] p 1.-X2X^ (.>X*X*X*X*X>X*X^.",
"[.y.>X*X*X*X*X*X*X*X>X[.9.'.X.o.r N.Y.P.v.a.| u e h b g t { t e Z |  .| Z {  . .' u y Z P.R.K.M.z.y 2 l 1.*X<.(.>X*X*X*X*X*X;X.X",
"*X*X*X*X*X*X*X*X*X*X*XOX4.o.M.l.Z m.P.J.a.| { u u s k j h { { e e u u u y Z { | } ' u Z D.P.B.M.l.M p l k G.[.[.>X*X*X*X*X*X*X}.",
"1X*X*X*X*X*X*X*X*X*X*Xi.X.z.h.a.] N.K.J. .' u } { r 9 k c m u u u e u y e e y ' u u ' t S.L.B.c.X.S b k 3 _ w.,.,X*X*X*X*X*X*XOX",
"0X+X*X*X*X*X*X*X>X%XXXM f.f.a.} L.P.C.C.{ y { | { y u h b l r { Z e u ' { u e u e y q 6 C.P.N.g.M v f c [.;., ) ,X*X*X*X*X*X>X+X",
"0X$X*X*X*X*X*X*X&._.OXw } a.Z m.Q.R.J.z.{ y ' Z y u y > j d h q e e e e u y e ' ' e C V.Y.P.v.a.} m s R OX4X(.K ,X*X*X*X-X>XOX[.",
"0X+X*X*X*X*X*X>XP [.oXU e { t K.W.W.Y.s.' e e e y y 0 g h w t 5 8 0 e e e e e w 9 C P.Q.W.Y.M.h.a.M c ! +X*X*X1 &.,X>X-XOX(.+X[.",
"0X+X*X*X*X*X*X,X0.u.@.g.o.a.t s.P.E.P.a.e y u y 0 8 E g n { } e q.).r 8 8 8 0 M S $.Y.W.R.K.B.l.} N x 8 oX*X>X^ < =.~.q.*X0XeXOX",
"0X+X*X*X*X*X*X-Xu.O.h.f.a.s.q  .M.P.P.o.e Z u q O. X).> t { u q ` *XoX X4.9 m.Y.$.G n.T.P.D.N.h.{ N S 9 oX*X,X,.) y.3 yX8X>X*X(.",
"6X*X*X*X*X*X*X*Xq.0 | | a. .0 } v.L.P.} q y e Q u. XoXO.0 0 8 r _ _ ` [.0.] T.!.b.G $.K.J.M.l.p.M G F z XX*X>X^.+ L 3XiX+X*X*Xw.",
"*X*X*X*X*X*X*X*X*X+.0 f.M.l.0 Z v.K.S.C q e 5  X( q :.y.L ; 3 1 : y e = ; v.P.T.$.v $.z.c.l.a.M F.F d >.%X*X>X(.o @XyX,X*X*X+X2.",
"*X*X*X@X X6.u.&X*X7.f.v.z.l.0 Z s.K.Y.x.q 8 < 6.q { u Q 9.[..X(.Q q E -.Q m.P.D.X.S ..l.a.h.k.B v j p 6.*X*X2X<., >X+X*X*X*X$X2.",
"*X*Xi.[ X.a.Z u.u.| l.g.f.s.0 Z h.P.Q.R.X.:./ 4.Q q 6 Q oXoX7.@...A @.@.@.D.P.S.l.B D X.] j.M.g.m f > 6.*X,X`.J +X*X*X*X*X-X.X,.",
"*X[.w | g.a.Z 6.6.Z a.f.f.a.y y l.B.Y.Y.L.8.y.J .X[ m.V.V.x.I.W.W.W.W.W.U.S.K.C.l.B F B G S k.z.V d 7 6.i.O.1 oX>X*X*X*X*X;X[.,.",
"*XXXQ q u t Q  X XU e } a.{ { e g.M.N.T.Q.I.@.= 1 n.Q.Q.Q.T.Y.R.W.E.W.R.U.D.B.M.g.x c S c M h.o.z c 7 4 X.h.Q ,X&X*X*X*X*X*X,.* ",
"*X*X X+.+. XOX*X*X[.( q y y  .0 a.l.s.S.W.W.T.x.M N.T.R.T.N.N.S.K.P.J.C.N.B.S.M.s.x s x d V M N s l p a V l.k.7.+X*X*X*X*X[.# . ",
"*X*X*X*X*X*X*X*X*X*X&X6.I r ] 0 } a. .z.K.T.W.Q.H.c.B.B.N.f.g.c.c.M.c.z.h.M.D.M.X.s x X.z v v s t m > d V f.h.f.+.+X*X*X>X<.o o ",
">X*X.X*X*X*X*X6.6.*X*X,X=.7 q 6 ' {  .z.N.J.T.W.J.l.M.M.g.a.l.B.z.g.c.N.c.M.M.| B f c ..z v d n  .} s c X.f.f.f.y [.*X*X*X^ . o ",
".X{.,.t._.}.:.f.f.5..X<Xw.L Q 5 y u { f.z.M.M.K.v.a.h.g.a.g.N.M.l.s.z.B.N.l.a.B v s z N h M h k ] M j c N a.g.a.e  X+XOX_.,   o ",
") K J < , : Z h.c.f.t 4 * % 4.8 y { { | f.l.s.z.N.l. . .a.z.| O.:.O.O.] l.l.} l z ..B l N ] B l h n p 2 m } | { r / K , 1 % + *.",
"*X.X[.[.[.Q q } g.c.h.t u.2X*.8 e | a.}  .a.| f.M.B.s. .a.] I ^ ^ ~ J < 8 a.k.x M V v v F h x 9 h l > :.[ 0 0 [ @X5X^ W =X5X[.&.",
"*X;X>X>X-X+X( 0 { a.p.u 6.*X( e u ' a.a.{ Z u  .h.z.a.c.| = + o . . . .   ] N.d.s.B a f l c n { m b a 4.XXu.u.XX*X>X) ,X5X,X%X0.",
"*X*X*X*X*X-X*X` 5 ' ' +.oX*XQ e { u { s.| | | | a. .s.c.@.;.^ 0.3 O . . . 5.s.l.h.x.[ f a h m a.C s p 6.*X*X*X*X*XOX<.3X+X*X*X~.",
"*X*X>X>XOX`.9., X 0 ( }.>X>X6.0 u { u } ' a.f.a.' ' s.s.( *.1X6X3X.X/.* .  X] f.o.h.} f h u y { u w 7 6.*X*X*X*X>X}.y.>X*X*X*Xt.",
"*X*X.XP # ) <.;.<.= o , <.[.<.5 0 ' { | { } a.f.} y | C W 5X2X+X7.[ Z.=.. 2X[  .{ { x k M Z { y y { q ` *X*X*X*X*X-.~.,X*X>X*X=.",
"-X4X~ ; _.>X>X>X>X0.T O   ^ O.o. .0 u a.a.{ }  .{ u { 8 I tXXX5.} l.d.( . eX7.' y N b l m } | e y ' 0 i.+X*X*X+X0.J +X%X[.].0.3 ",
".X) - (.>X2X8XeXeX6X5X6Xu.4 } f.| 5 e { a.| ' } u | a.O.P *X X8 Z a.l.} # yX|.{ M b l b v m u y y e Q *X*X*X,X[.-.J ) % % K *.4.",
"~ &.[.XX;.yXuXwXwX0X5X8XuXQ { | 0 0 u u | | { s. . .l.[ W ).,Xr.8 y a. .0 7X@.s.m h g g j g e ' y 0 _ 0.t.0.-.~ * + 1 ;..X*X,X<X",
"*X,X*X].o XX-XOX+X+X+X+XOX|.r O.` q { ' ' ' { a. .| g.[ u.4.2X%X[.Q y u = rXO.s.| } A g > m ' u q I <.3.^ + .   3 {.,X,X>X,XOXt.",
"%X,X9X5X;.OX6X*X*X*X*X*X*X&X(..X*X8 u ' y y u { { { a.U oXK , < & % : $ = wX( a. .' m l n y y e 7 L 3 3 o .   W 2X-X*X>X+X0./ ) ",
"tXtX6X6X5Xy.1X%X*X*X*X*X*X*X*X*X*XQ 0 e u { y u Z ' | t OXY i.#X@X@X=X).).oXQ | ] y 9 j n y q r i.+XJ   o . + 6X>X;X{.-./ 9.wX2X",
"6X*X$X+X>X9.=.2X*X*X*X*X*X*X*X*X>X~.: 0 e ' { y e { { ( >Xq.9X5X5X5X9XeXtX4X4 u u u M g > e U .X*X,X^ K .X].*.wX*X^.=.7X8XtXyX+X",
"2X*X*X*X;X[.q.6X+X*X*X*X*X*X*XOX(.t.Y $ 5 y u y e } a.[ =.@XtXXX*X+XOXOXOX0.: } | u t g 9 w i.*X*X,X^ e.%X.X, 0.(.* yXaX9X>X@X[.",
"7X&X*X*X*X$X4.4X*X*X*X*X*X>X<X^.&.2.-.o = 0 e e e u | w ~ 4X8X$X*X*X,X,X[.3.: | } y e w r i.*X*X>X+XY ).[.XX^ % P =XuX+X+X*X;X}.",
"0X+X*X*X*X*X{.4X*X*X*X*X*X*X_.w.,.-.3   % / Q 0 e e u w +X-X-X*X*X%X0.y.^.&.: ] u e 0 r ).>X-X>Xy.% u.wX*X2Xy.1 6X6X@X*X*X*X*X(.",
"8X$X*X*X*X*X.X+X;X*X*X*X*XOX(.,.2.J o @XrX4X/ I Q 0 e r oX*X*X*X>Xw.=.XX^.T 9 q q 0 E ;.e.[.OX3.1 (.0X*X&X,X2.<.2XOX*X*X*X*X.X,.",
"*X*X*X*X*X*X+X0.&X*X*X*X*X*Xt.-.w., *.aX*X-X~.* < ~ r *.*X*X*X*X*X*X2X>Xw.K r.( ( ).*X-XXXy.0., @X8X+X*X*X,X0.&.1X-X>X>X;X>X(.^ ",
"*X*X*X*X*X*X*X,.+X*X*X*X*X-X].-.w.& q.eXOX}.2.,.. 9.#X9.[.OX[.t.3.t.(.(.0.< ,X,X*X*X*X*X>X>X3./ wXOX*X*X*X<X0.&.*X_.(._.(.y.<.=.",
"*X*X*X*X*X*X*Xy.~.>X*X*X*X*Xt.-.2., 1XOX3.-.-.2.* w._.w.<.,.-.-.,.-.-.-.2.* =X,X*X*XOX_.t.2.&.3 >X*X*X*X*X*X-.< 2.-.-.-.-.-.,.<."
};
