/* XPM */
static char *_d4c767ef4af4a63ec8f90ac93c043f6V7BN3xWvZMfwmcHc[] = {
/* columns rows colors chars-per-pixel */
"64 64 217 2 ",
"   c #000004",
".  c #02000C",
"X  c #0D0B0D",
"o  c #050311",
"O  c #090513",
"+  c #0A0916",
"@  c #0D0C1A",
"#  c #100E19",
"$  c #0E101D",
"%  c #181616",
"&  c #191616",
"*  c #11111E",
"=  c #1C1C1B",
"-  c #201F1E",
";  c #1B211E",
":  c #22201F",
">  c #141422",
",  c #171825",
"<  c #191A26",
"1  c #1C1D2A",
"2  c #211E2A",
"3  c #1D2422",
"4  c #132921",
"5  c #1C2926",
"6  c #1F212E",
"7  c #1D2E2A",
"8  c #16372C",
"9  c #1C332C",
"0  c #1F2130",
"q  c #1F3A35",
"w  c #242424",
"e  c #272827",
"r  c #22222D",
"t  c #242A2A",
"y  c #2A2B2C",
"u  c #312E2D",
"i  c #33302E",
"p  c #232532",
"a  c #262936",
"s  c #2A2C35",
"d  c #2A2D3A",
"f  c #2E3235",
"g  c #263834",
"h  c #2E313D",
"j  c #333335",
"k  c #32343C",
"l  c #393839",
"z  c #433E3A",
"x  c #1F413A",
"c  c #20423B",
"v  c #2E3440",
"b  c #323642",
"n  c #363A45",
"m  c #373A46",
"M  c #3A3C45",
"N  c #3A3E49",
"B  c #403F44",
"V  c #1E5444",
"C  c #244A43",
"Z  c #3C4144",
"A  c #3D434D",
"S  c #3D484C",
"D  c #24554A",
"F  c #3E4652",
"G  c #255C52",
"H  c #365C56",
"J  c #1C6953",
"K  c #28665A",
"L  c #2E6B5C",
"P  c #306E64",
"I  c #2B7568",
"U  c #39756B",
"Y  c #2D7E70",
"T  c #454649",
"R  c #42434D",
"E  c #434652",
"W  c #444A55",
"Q  c #4C4D52",
"!  c #464D59",
"~  c #4B4E59",
"^  c #47545A",
"/  c #4C525C",
"(  c #545659",
")  c #51545D",
"_  c #4E5662",
"`  c #4E5B63",
"'  c #515661",
"]  c #535A65",
"[  c #5A5C64",
"{  c #555E69",
"}  c #595F6A",
"|  c #5D6063",
" . c #56616B",
".. c #5B636D",
"X. c #5C6671",
"o. c #576A73",
"O. c #5C6B74",
"+. c #557174",
"@. c #61646D",
"#. c #63676C",
"$. c #616671",
"%. c #636B75",
"&. c #696C75",
"*. c #646E78",
"=. c #686F7A",
"-. c #6C7276",
";. c #66717B",
":. c #6B737C",
">. c #71757C",
",. c #75797F",
"<. c #28876D",
"1. c #2E8273",
"2. c #2E897A",
"3. c #338E7C",
"4. c #43877B",
"5. c #6D7680",
"6. c #657B84",
"7. c #667C86",
"8. c #6F7983",
"9. c #717781",
"0. c #737B85",
"q. c #7B7D85",
"w. c #767F89",
"e. c #797F89",
"r. c #2F9181",
"t. c #339584",
"y. c #349B88",
"u. c #32A78B",
"i. c #34AA96",
"p. c #36B39C",
"a. c #36B5A0",
"s. c #3BBBA6",
"d. c #6C828C",
"f. c #76818A",
"g. c #7C858A",
"h. c #7B838C",
"j. c #6E8691",
"k. c #6F8893",
"l. c #7D8790",
"z. c #708A95",
"x. c #7E8991",
"c. c #7C949E",
"v. c #45AD9B",
"b. c #48B6A3",
"n. c #39C49E",
"m. c #3CC4AA",
"M. c #3CC7B0",
"N. c #3DCBB3",
"B. c #3FD2BA",
"V. c #49CBB5",
"C. c #41D4BB",
"Z. c #45E8BC",
"A. c #42DBC1",
"S. c #55DEC7",
"D. c #74DFCD",
"F. c #45E5CA",
"G. c #45E8CD",
"H. c #53E9D0",
"J. c #6DEFD9",
"K. c #808087",
"L. c #82858D",
"P. c #808791",
"I. c #838B94",
"U. c #8A8D95",
"Y. c #868E98",
"T. c #898F99",
"R. c #8E9197",
"E. c #86919A",
"W. c #8C949D",
"Q. c #91959D",
"!. c #94989F",
"~. c #8E97A0",
"^. c #8E99A2",
"/. c #9097A1",
"(. c #949BA4",
"). c #999EA5",
"_. c #979EA8",
"`. c #989FA9",
"'. c #99A1A7",
"]. c #96A1AA",
"[. c #9AA2AB",
"{. c #9EA7B0",
"}. c #9EA9B1",
"|. c #A0A1A7",
" X c #A1A7AE",
".X c #A4A8AF",
"XX c #A3ABB3",
"oX c #A3ABB4",
"OX c #A9AEB5",
"+X c #ABB0B7",
"@X c #A6B1B9",
"#X c #ACB4BB",
"$X c #B1B5BB",
"%X c #B4B9BF",
"&X c #B3B6C0",
"*X c #B5BCC2",
"=X c #B9BEC4",
"-X c #BBC1C6",
";X c #BEC4CA",
":X c #83EFDD",
">X c #86F2E0",
",X c #C1C6CB",
"<X c #C3C9CE",
"1X c #C6CCD2",
"2X c #CBCED4",
"3X c #CBD1D6",
"4X c #CED4D9",
"5X c #D3D6DC",
"6X c #D8DBDE",
"7X c #D7DCE1",
"8X c #DADEE3",
"9X c #DDE2E7",
"0X c #E4E9ED",
"qX c #E9EDF1",
"wX c #EDF1F4",
"eX c #F3F8FB",
"rX c #FDFFFF",
/* pixels */
"9X7XY.(.(.(.(.(.).^.0 -.[.(.(.(.(.(.].8.o o . %X@XW.(.(.(.(.`.Q.W.(.(.(.(.(.].0.@ 0.oX(.(.(.(.(.(.x.} X.~   E I.} -X[.(.(.(.W.X.",
"0XT.} ].(.(.(._.I.;.p ;.[.(.(.(.(.(.].I.@ O   U.#XW.(.(.(.(.(.].(.(.(.(.(.(.E.%.1 &.[.(.(.(.(.(.].0.] X.~ O &X5X(.].(.(.(.(.(.I.",
"0.} ~.(.(.(.(.W...X.b ;.[.(.(.(._.`.^.l.o s h ~ #XW.(.(.(.(.(.(.(.[.[.(.(.[.(.h., ~ ].(.].].].(.E.;...O.d p 5X3XOX~.(.(.(.(.(.(.",
"Y.]._.(.(.(.(.;.} X.A I.].(.].(.x.X./ ] Q e.W.N [.(.(.(.(.(.(.].^.X./ b h { T.E.h , b A n n N d 1 1 r >   s 5XOX~.(.(.(.(.(.(.(.",
"_.(.(.(.].[.(... ...A ~.(.W.;.F N &.T.$X,X,X;Xb *._.(.(.(.(.`.h.v / :.w.0.h.} $ [ @XU.h.0.0.0.0.w.e./ W &.R #X(.(.(.(.(.(.(.(.(.",
"(.(.`.E.;. .} ..X.{ @ p W N a 2 q.*X[.(.W.E._.E b h.(.(.(.(.~.W h.oX[.[.{.U.I.s .X X(.].[.].[.]._.}.} $.h.N (.`.(.(.(.(.(.(.(.(.",
"W.].E.%.` _ { X._ > q.Q.U.W. XW.T.(.(.(.(.(.{.$.0.oX(.(.(.].h.] [./.(.(.f.F f.W ,X(.(.(.(.(.(._.[.(.W.d * @ ` 0.[.(.(.(.(.(.(.(.",
"/ 5... .....X.{ * T.0X1XXX(.(.E.I._.(.(.(.(.].h.] [.(.(.(.[.X.} (.(.(.(.W._.E.b $X(.(.(.(.(.(...W =.:...1 ( `.] w.].(.(.(.(.(.(.",
". 1 X. . ...... B 0XU.E./.(.(.E.&.].(.(.(.(.(.^.A I._.(.(.E.a Y.`.(.(.(.(.(.I.s +X'.(.(.(.(.[.N #.*X.XoXW OX#X XW h._.(.(.(.(./.",
". . N %.X...* @ oXOX~.(.(.(.(.(.N W.(.(.(.(.(.].I.} oX(.[.;.d ].(.(.(.(.(._.x., $X(.(.(.(.(.[.] U.]./.(.b (.(.(.W.h.].(.(.(.(.0.",
",     F / > b E.[./.(.(.(.(./.OX0.h.`.(.(.W.W.W._.~ ~ (.}.] n oXQ.(.(.(.(.].5./ <X(.(.(.(.(.(.s b ^.[.I.E OX(.(.(.[.0.h.`.(.(.;.",
"6 n E .   p oX(.(.(.(.(.(.(.(.(._.(.(.#.Z l j j l Q s , b @ > *X(.(.(.(.(.`.h.(.*X(.(.(.(.(.E.L.[.OXh...(.].(.(.(.(.].].(.(.W...",
"-.1X#X]   Q @XW.(.(.(.(.(.(.(.(.(.(.(.[ = 5 P 1.I c & ( ) [ r / (.(.(.(.(.W.W._.(.(.(.(.(.(.(.].(.}.#.M #X/.(.(.(.(.].(.(._.f.} ",
"9X(./.[.b s {.(.(.(.(.(.(.(.(.(.(.(.(.(.[ ; 2.B.G.Y ; t t t t = i T [ 0.W.;.W.(.(.(.(.(.(.(.(.(.(.[.;.) [.(.(.(.(.(.(.(.(.(.=.} ",
"=XW.(._.:.1 U.].(.(.(.(.(.(.(.(.(.(.(.W.j 9 y.C.F.C.s.s.s.b.v.y.Y K c t y Q I.(.(.(.(.(.(.(.(.(.(.[.} h.].(.(.(.(.(.(.(.(._.;...",
" X].{.x.X.p ) oX(.(.(.(.(.(./.E.(.(.(.L.e G p.A.F.G.G.F.F.H.J.>XJ.A.t.v.4.C w ( W.(.(.(.(.(.(.(.(.Y./ _.(.(.(.(.(.(.(.].].h.{ d ",
"w.=...:.(.;.n ].(.(.(.(.(.(.(.(.(.(.(.(.[ 3 G i.M.A.F.A.M.M.S.:XJ.v.= U :XD.t.9 Q (.'.(.(.(.(.(.}.{ %.[.(.(.(.(.(.(.~.} n N A r ",
";...h.^.(.E.> q.oX(.`.[.].(.(.(.(.(.(.(./.&.w c t.p.B.G.F.M.a.C.H.L 3 g V.J.H.t.t w.w.].(.(.(.(.^.a 0.].(.(.(.(.(.OX0.n I.W.(.].",
"(.(.oX@XOX#X/ R ).I.l.$.;.I.^.(.].].].(.(.].A e C i.M.G.F.F.s.p.M.q U g 1.F.V.C e  .{ 0.h.W._.E.W * E.(.`.).[.].w...< g.oX].].].",
"/.=X1X#X#X#X*XOX(.) , R R / ' :.$.} X.5.5.} < = c p.B.M.u.2.Y r.3.5 4.H 7 N.m.C 7 3 n N v n n n o . } ;.0.l.:.n k #.%.'.Y.$.9.w.",
"8X0X].W.~.W.W.(.[.I.E 5X<X;X$XOXU.*.E > > . & q t.N.i.G 5 3 w 5 3 c V.+.5 P I y.M.G # ~ U.q.q.L.|.).=XOX'.h.@ K.+X*XOX].(.U.I.-.",
"wXXX~.(.(.(.(.(./.[.$.L.(.W.(.(.(.[.}.N + w D u.s.p.c w S ` O.` = 1.F.v.= j B t 3.I e U.eX5X3X;X#XoX(.(.`.W.n W.].W./.(.(.(.].[.",
"%XQ.(.(.(.(.(.(.(.[.$.$.oX(.(.(.(./.(.].w q u.p.i.C w ^ O.d.z.d.k 9 L C y d.].-.7 q M ,.-XY.W.W./.(.[.[.[.l.h T.].(.(.(.(.(.(.l.",
"(.(.(.(.(.(.(.(.(.(.:./ E.(.(.(.(.(.(._.Q 5 2.p.I ; ! o.7.z.z.z.6.S f Z O.k.z.].l & Q ~ *XI.W.W.W.E.;.E n N b ].(.(.(.(.(.W.w. .",
"(.(.(.(.(.(.(.(.(.^.@X{ =.[.(.(.(.(.(.>.y 9 2.i.x k !  .z.z.k.k.z.z.j.k.z.z.k.^.#.= < > s + @ * $ 6 N ' ;.I./ I.(.(.(.(.(.;.]  .",
"^.E.(.(.(.(.(.(.(.(.[.&.%.[.(.(.(.(.(.B c y.p.t.5 s ! 6.z.z.z.k.z.z.z.z.z.z.k.c.0.y I.U.*...' ~ a * (.OX].oXW 0.].(.(.(.(.].(.8.",
"h.:.].(.(.(.(.(.(.(.].h.$.[.(.(.(.(.(.Q q t.p.2.3 k ` j.j.7.7.d.k.z.z.z.z.z.z.c.x.j ,X*X(.[.[.}.].N A ].(.]...0.].(.(.(.(.(.`.I.",
"(.(.(.(.(.(.(.(.(.(.(.E.w.`.(.(.(.(.(.h.j 7 K K w ^ ` d.S w w y Z O.z.z.j.O.`  .,.y h.W.(.(.(./.(.E.E h I.@Xh.e.].(.(.(.(.(.(.x.",
" X(.(.(.(.(.(.(.(.(.(.~.h._.(.(.(.(.(.(.I.( e & = / O./ = 8 V V 9 s 7.z.` = 3 ; y y U.(.(.(.(.(.(.(.E.X.b } *...[.(.(.(.(.(.(.E.",
"-XW.(.(.(.(.(.(.].^.].h.' ].(.(.(.(.(.(.(.(.l ; ; ! o.k 4 J 3.u.<.3 O.z.k 8 <.K & j W.(.(.(.(.(.(.(.(.].E.} p / [.(.(.(.(.(.].W.",
"-X~.(.(.(.(.(.(.' w.[.h.q._.(.(.(.(.(.(.(.].y 3 = n o.f 8 <.n.Z.p.5 o.j.f V n.y.= Z (.(.(.(.(.(.(.(.(.(.(.@X0.n [.(.(.(._.].E.h.",
"-XW.(.(.(.(.(.].N h.].(.].(.(.(.(.(.(.(.(.{.h l j 3 S k ; K u.n.L t 6.z.S 9 <.D & | (.(.(.(.(.(.(.(.(.(.(.(.(.d ' [.]._.Y.0.W.h.",
"-XW.(.(.(.(.(.[.&.h._.(.(.(.(.(.(.(.(.(.(.].* L..XQ y = & = 7 9 3 / z.z.;.t = & y L.(.(.(.(.(.(.(.(.(.(.(.(.].E a ] 5.&.(.-X1XE.",
"-XW.(.(.(.(.(._.P.[.].].[.`.~.(.].[.].(.(.;.o  XOXQ.q.T & & n ^ / 7.z.d.z.W & t >.(.(.(.(.(.(.(.(.(.(.(.(.(.[. ./ :.k 5X*X].(.0.",
"#X(.(.(.(.(.(.(.W.e.h.0...R / ;.$...5.%...p k 1XE.-.j t 3 & Z ` W O.6.!  .f X N I.[.(.(.(.(.(.(.(.(.(.(.(.(.].0.+ n OX9XW.(.(.=.",
"(.(.(.(.(.(.(.(.(.E...' 9.U.(.(.E.0.] E E o n ).Q w L m.L & = = = f f & = = O d (.oXE.(.(.(.(.(.(.(.(.(.(.(.].0.o Q.5X[.(.(.W.X.",
"(.(.(.(.(.(.(.(.(.(.].[.[.].(.[.~.w.w.I.w.~ w y = 3 i.i.7 y s R j & = : & T h.E =.[.(.(.(.(.(.(.(.(.(.(.(.(.oX..p ].W.(.(.(.~.X.",
"(.(.(.(.(.(.(.(.(.(.(.(.I.l.^.] N >.%X8X].f.= M / j 7 7 y E / } Z : e = : L.[. .P.#X~.(.(.(.(.(.(.(.(.(.(.[.e.b W.(.(.(.(._.I. .",
"(.(.(.(.(.(.(.(.(.(.(._.I./ d n (.3XrX4XW.( w M R M & e j l / N y w z & = 0.(.(./ f.{.(.(.(.(.(.(.(.(.(.(.h.d U.].(.(.(.(.`.h. .",
"(.(.(.(.(.(.(.(.(.(.(.].h.@ q.<X8XwX6X;X/.[ = & & = = e = = - = - j l : j -.(.[.w.6 5.[.^.h.f.h.x.x.%. .0.b ~ oX/.(.(.(.(.(. .1 ",
"(.(.(.(.(.(.(.(.(.(.(.[.=.[ rXwX2X:. .^.(.W.$.+ = = = w U H K D w u i e u >.(.(.}.9.p E N p 1 a b 6 f [.@Xw.f.].(.(.(.(.(.h.* . ",
"(.(.(.(.(.(.(.(.(.(.(.[.{ >.;X].W.E.(.(.(.].w.# = 2 = k U 3.L 9 y = = = w I.(.(.h.;.;.E   > I.(.;.' / #./ d 9.[.(.(.(.(.]...o o ",
"].(.I.(.(.(.(.(.(.(.(.[.} A ].W.(.(.(.(.(.0.j = e = & = = 3 w = w w Q T ( (.E.;...^ A o * 6XeX#X[.oX[.I.0.' ) [.(.(.(.(.(.W . o ",
"P.l. .;.w.x.I.I.I.E.W.}.*.N oX].].[.].^.*.w & & & = y & e %.#.= = #._.(.(.(.X.p A ..Q.L.+X*Xw.f.I.I.U.~.(.oX*.x.[.(.W.Y.w.p   o ",
"~ n b a p p a p p h a b 1 > w.h.0.%./ b h f j R #.w.0.* ! ].-.= Q I.l.h.0.E + U.8X8X<X*X#Xw.) ].).R.R.[ [ g.#./ $./ n p d > @ ] ",
"(.I.h.h.h.h.P.%., . E ' U.XX0.W n p &.P.U.(.].(._.].}.} 6 N E n E E b d , 2 %XeX@X/.W./.#X<X,X*X=X=X=X#X#XOX#XOXXX@XW R ).+Xh._ ",
"(.`.].]._._.].f., E @X@XXX(.].oXP.9.OX`.`.^.$.:.Y.(.(.[.X., $ o . . . .   0.rX#.h.].(.(./.W.W.W.W.W.W./.(.(./.(.(.]./ [.@X[.^.%.",
"(.(.(.(.(.`. Xf.+ ..OX~.Q.(./.(.&.W.(.(.(.(.(.~.(.(.(./.@XX.W %.k O . . . ).eXk &.].(.(.(.(.(.(.(.(.(.(.(.(.(.(.(.E...OXW.(.(.5.",
"(.(.].].E.e.$.p   > :.Y.].].oXI.$.[.(.(.(.(.(.(.(.(.).[.8.] .X#X+XE.9.1 . +X9X[.].(.(.(.(.(.(.(.(.(.(.(.(.(.(.(.].x.:.].(.(.(.;.",
"(.(.I.N * / ..} ..1 o p ..h.;.W h.].(.[.[.].(.W./.W.I.0.W +XoX(.(.(.oX] . #X.X} ].(.(.(.(.(.(.(.(.(.(.h.(.(.(.(.(.{ 5.[.(.].(.] ",
"_.OXE r w.].].].].%.E O   ! 0.^.(.(.W.%.} #.T.1X3X$Xg.n R 3XE.(.(.(.[.... 1X;X.._.(.(.(.(.(.(.(.(.(. X XW.(.(.W.%.b W.^.h.f.%.h ",
"I./ 6 0.].oX*X1X1X$X@X#X>.n / I.].[.' [ ,X6XwXqXOX`.[.[.A (.(.(.(.(.[.] o 6X7X].[.(.(./.^.^.(.(.(.(.(.(.(.(.[.h.} b / > > n ] #.",
"E ' h.U.} 6X7X<X<X-X@X*X9X<X>.E w.5.-.rXrXeX9X.XW.(.~.{.W q.{.(.(.(.].! o 5X<XI.h.:.%... . ...%.=.%.%.%.;.%.} E 1 + d } I.(.[.}.",
"(.[.(.f.o I._.E.W.W.W.W.E.oX1X-X(.b Q.4X%X#X(.(.(.(.(.].h.#.oX(.^.I.f.W # 3X[.x.E.~.~.U.0.0.;...]  .X.X.E @ .   k l.[.[.].[.E.;.",
"(.[.=X+X} E.#X(.(.(.(.(.(./.E./.OX%.] #XE./.(.(.(.(.(.(.(.n p a , > *   2 ,X(.].(.(.`.[.].h.0.' n N h h o .   R oX_.(.].W.%.! / ",
"4X4X#X#X@X:. X^.(.(.(.(.(.(.(.(.(.=.d E._.(.(.(.(.(.(.(.].A ,.!.Q.Q.|.q.q.U.0.E.].~.E.0./ =.W.(.(.W.b   o . @ $X].`.l.} ! $.,XoX",
"#X(.~.W.].$.] oX(.(.(.(.(.(.(.(.].8.a E ].(.(.(.(.(.(.(.}.&.=X@X@X@X=X1X3XOXM 1 ....=.I./.[.(.(.(.[.W n I.f.] ;X(.8.] %X*X3X5XW.",
"oX(.(.(.`.l.&.#XW.(.(.(.(.(.(.E.0.;.A @ I.[.(.(.(.(.(.[.} Q.3XU.(.~.E.E.E.%.1 ..5XoX(.].(.(.(.(.(.[.E =.^.I.p %.0.< 5XqX=X].Q.h.",
"$X/.(.(.(.~.#.OX(.(.(.(.(.].}.8.` ..} o , T._.(.(.(.]...~ OX*X~.(.(.[.[.h.X.> h.eXOX(.(.(.(.(.(.].W.A q.h.U.W > N ).8XW.W.(.`.x.",
"-XW.(.(.(.(.l.OX(.(.(.(.(.(.w.*. .} h   > ..].].(.(./.h.]._._.(.(.^.&.:.8._ > =X=X*.0.W.].]._.].:.> >.<X(.oX:.h #X#XQ.(.(.(.(.0.",
"*X~.(.(.(.(.I.W.`.(.(.(.(.E.0. .X.b o Q.2XOX~ / (.[.].oX(.(.(.(.].*.] I.8.F / @X(.Y.=.$.=.h.E.X.d 0.-X(./.[.X...oXE.(.(.(.(.I. .",
"(.(.(.(.(.(.W.%./.(.(.(.(.(.;.} *.p [ wX(._.5.1 a } =.0.(.(.).(.(.(.oX].*.n L.[.(.(.[._.I.:.%.p Q.*XW.(.(.[.%.'  X_.].].`.].0.E ",
"(.(.(.(.(.(.(. .W.(.(.(.(._.f.{ *., &.1XE.x.X. .. $.!.$.h.E.h.;.X.;.0.0.%.a [.[.(.(.(.(.].].O.W <XE.(.(.(.{.%.' (.w.0.w.0.:...] ",
"(.(.(.(.(.(.(.:.5.].(.(.(.(.;.{ X.p .XE.O.} } X.1 *.w.=... .} {  .{ { { X.1 ).[.(.(.E.w.;.X.` h ].(.(.(.(.(.} a X.{ { { { {  ..."
};
