/* XPM */
static char *ae5caa512601415ef36942fa75047073DqdXJiTJIq5grFxe[] = {
/* columns rows colors chars-per-pixel */
"64 64 168 2 ",
"   c #000004",
".  c #02000D",
"X  c #050311",
"o  c #080614",
"O  c #0A0816",
"+  c #0D0C1A",
"@  c #100E1C",
"#  c #0E101D",
"$  c #11111E",
"%  c #141422",
"&  c #181623",
"*  c #171927",
"=  c #191926",
"-  c #1C1D2A",
";  c #211E2A",
":  c #1F212E",
">  c #1F2130",
",  c #22212E",
"<  c #232532",
"1  c #262935",
"2  c #292A37",
"3  c #272B38",
"4  c #2B2D3A",
"5  c #302E3A",
"6  c #2E313D",
"7  c #32323E",
"8  c #2E3440",
"9  c #323642",
"0  c #393641",
"q  c #363946",
"w  c #393B46",
"e  c #363C49",
"r  c #3A3E49",
"t  c #413E4A",
"y  c #3D414D",
"u  c #3E4551",
"i  c #3F4855",
"p  c #43444E",
"a  c #434652",
"s  c #444A55",
"d  c #4A4B55",
"f  c #464D59",
"g  c #4A4E59",
"h  c #47515D",
"j  c #4C525D",
"k  c #51545E",
"l  c #4D5661",
"z  c #4F5964",
"x  c #515661",
"c  c #535A65",
"v  c #5A5B65",
"b  c #555E69",
"n  c #5A5F69",
"m  c #56606B",
"M  c #5B636D",
"N  c #5C6671",
"B  c #5E6973",
"V  c #61646E",
"C  c #626671",
"Z  c #636B75",
"A  c #696C76",
"S  c #646E78",
"D  c #696F79",
"F  c #66717A",
"G  c #6B737D",
"H  c #72747D",
"J  c #78777F",
"K  c #6D7680",
"L  c #6F7983",
"P  c #717781",
"I  c #737B85",
"U  c #7B7C85",
"Y  c #757F89",
"T  c #797F89",
"R  c #7B8087",
"E  c #76818A",
"W  c #7B838C",
"Q  c #7D8790",
"!  c #7E8991",
"~  c #808087",
"^  c #82858D",
"/  c #818791",
"(  c #838B94",
")  c #8A8D95",
"_  c #858E98",
"`  c #898F99",
"'  c #8E9197",
"]  c #86919A",
"[  c #8C949D",
"{  c #91959D",
"}  c #94989F",
"|  c #8E97A0",
" . c #8F99A2",
".. c #9097A1",
"X. c #949BA4",
"o. c #999EA6",
"O. c #979EA8",
"+. c #989FA9",
"@. c #99A0A7",
"#. c #96A1AA",
"$. c #9DA5AF",
"%. c #9FA7AF",
"&. c #9DA4AD",
"*. c #9AA2AB",
"=. c #9DA7B0",
"-. c #9FA7B1",
";. c #9EA6B0",
":. c #9FAAB2",
">. c #9EA9B1",
",. c #A0A1A7",
"<. c #A1A7AF",
"1. c #A1A6AE",
"2. c #A6A8AE",
"3. c #A3A9AF",
"4. c #A0A7B1",
"5. c #A1A9B0",
"6. c #A2AAB3",
"7. c #A6ADB6",
"8. c #A3ABB3",
"9. c #A9AEB5",
"0. c #A5AFB8",
"q. c #ABB0B7",
"w. c #A6B1B9",
"e. c #ABB2B9",
"r. c #AFB7BF",
"t. c #AEB6BD",
"y. c #ACB4BB",
"u. c #B0B5B9",
"i. c #B1B5BB",
"p. c #B5B8BE",
"a. c #B3B9BF",
"s. c #B3B6C0",
"d. c #B5BCC3",
"f. c #B4BCC2",
"g. c #B9BEC4",
"h. c #B9C0C5",
"j. c #BBC1C6",
"k. c #BBC3C9",
"l. c #BEC4CA",
"z. c #C1C6CD",
"x. c #C3C6CC",
"c. c #C1C6CA",
"v. c #C3C9CE",
"b. c #C6CCD2",
"n. c #CACED4",
"m. c #CBD1D6",
"M. c #CDD0D9",
"N. c #CED5D9",
"B. c #D2D5DE",
"V. c #D3D7DF",
"C. c #D3D6DB",
"Z. c #D5D9DE",
"A. c #D8DBDE",
"S. c #D7DDE2",
"D. c #D6DBE1",
"F. c #DADEE3",
"G. c #DDE1E6",
"H. c #DFE4E8",
"J. c #DDE3E8",
"K. c #E1E8EC",
"L. c #E4E9EE",
"P. c #E8EBEE",
"I. c #EAEEF2",
"U. c #EDF1F4",
"Y. c #EEF4F9",
"T. c #F1F6F9",
"R. c #F6FAFD",
"E. c #FDFFFF",
/* pixels */
"H.S._ X.X.X.X.X.o. .> G %.X.X.X.X.X.#.L X X . p.e.[ X.X.X.X.+.[ [ X.X.X.X.X.#.I + I 6.X.X.X.X.X.X.! b N g   a ( b j.%.X.X.X.[ N ",
"K.` b #.X.X.X.O.( F < F %.X.X.X.X.X.#.( + X   ) t.[ X.X.X.X.X.#.X.X.X.X.X.X.] Z - A %.X.X.X.X.X.#.I c N g o s.C.X.#.X.X.X.X.X.( ",
"I b | X.X.X.X.[ M N 9 F &.X.X.X.O.+. .Q X 2 6 g t.[ X.X.X.X.X.X.X.*.%.X.X.*.X.W * g #.X.#.#.#.X.] F M B 4 < C.N.7.| X.X.X.X.X.X.",
"_ #.O.X.X.X.X.G b N y ( #.X.#.X.! N j c d T [ r %.X.X.X.X.X.X.#. .N j 9 6 b ` ] 6 = 9 y q q r 4 - - , %   2 C.7.| X.X.X.X.X.X.X.",
"O.X.X.X.#.&.X.M m M y | X.[ F u r A ) u.z.z.k.9 S O.X.X.X.X.+.W 8 h G I I W n # v e.) W I I P I Y T j s A p t.X.X.X.X.X.X.X.X.X.",
"X.X.+.] F m n M N b + < s r 1 ; U d.*.X.[ ] O.a 9 W X.X.X.X.| s W 6.*.*.-.) ( 2 2.<.X.#.*.#.*.#.O.:.n C W r X.+.X.X.X.X.X.X.X.X.",
"[ #.] Z z l b N l % U { ) [ <.[ ) X.X.X.X.X.-.C I 6.X.X.X.#.W c %...X.X.E u E s z.X.X.X.X.X.X.O.*.X.[ 3 $ + z I *.X.X.X.X.X.X.X.",
"h K M m M M N b $ ) K.b.8.X.X.] ( O.X.X.X.X.#.W c %.X.X.X.&.N b X.X.X.X.[ O.] 9 u.X.X.X.X.X.X.M s S G M - k +.c Y #.X.X.X.X.X.X.",
". - N m m M M . t K.) ] ..X.X.] A #.X.X.X.X.X. .y ( O.X.X.] 1 _ +.X.X.X.X.X.( 2 q.@.X.X.X.X.*.r V d.<.8.f 9.t.<.f W O.X.X.X.X...",
". . r Z N M $ + 6.7.| X.X.X.X.X.r [ X.X.X.X.X.#.( n 6.X.&.G 4 #.X.X.X.X.X.O.! = u.X.X.X.X.X.*.c ) #...X.9 X.X.X.[ W #.X.X.X.X.P ",
"&     u j % 9 ] %...X.X.X.X...7.I W +.X.X.X.X.X.#.g g X.:.c 0 6.{ X.X.X.X.#.K j v.X.X.X.X.X.X.2 9  .*.( a 9.X.X.X.*.I W +.X.X.G ",
": 0 a .   < 8.X.X.X.X.X.X.X.X.X.O.X.X.X.X.X.X.X.X.%.p = 9 + % d.X.X.X.X.X.+.W X.f.X.X.X.X.X.] ^ %.7.W M X.#.X.X.X.X.#.#.X.X.[ M ",
"G b.y.c   d e.[ X.X.X.X.X.X.X.X.X.X.X.X.X.X.X.X.X.X.*.W C A < x #.X.X.X.X.[ [ O.X.X.X.X.X.X.X.#.X.:.V w y...X.X.X.X.#.X.X.O.E b ",
"J.X...*.9 2 -.X.X.X.X.X.X.X.X.X.X.X.X.X.[ +.X.X.X.X.X.#.%.:.X.4 E #.X.X.O.G [ X.X.X.X.X.X.X.X.X.X.*.F k &.X.X.X.X.X.X.X.X.X.S b ",
"g.[ X.O.G - ) #.X.X.X.X.X.X.X.X.X.X.X.#.P Z #.X.X.X.X.X.X.[ -.6 g -.X.O.( [ %.X.X.X.X.X.X.X.X.X.X.%.n W #.X.X.X.X.X.X.X.X.O.F M ",
"<.#.-.! N < k 6.X.X.X.X.X.X...] X.X.X.X.#.D M X.X.X.X.X.X.X.+.W : ] O.X.[ #.X.X.X.X.X.X.X.X.X.X.X._ j O.X.X.X.X.X.X.X.#.#.W b 4 ",
"I D M G X.G q #.X.X.X.X.X.X.X.X.X.X.X.X.X.#.Z ] X.X.X.X.X.X...-.S x %.X.O.X.X.X.X.X.@.X.X.X.X.X.:.b Z %.X.X.X.X.X.X.| n q r y , ",
"G M W  .X.] % U 6.X.+.*.#.X.X.X.X.X.X.X.X.O.b W +.X.X.X.X.#.+.O.X.9 ..X.X.X.X.X.@.) I #.X.X.X.X. .1 I #.X.X.X.X.X.7.I q ( [ X.#.",
"X. .6.e.9.t.j p o.( Q C G (  .X.#.#.#.X.X.#.f C 7.#.&.6.#.I b ] ( % [ X.X.*.&.#.#.K b P W [ O.] s $ ] X.+.o.%.#.I M - W 6.#.*.*.",
"..g.b.y.t.t.f.9.X.k = p p j x G C b N K K b - 4 K I K j j ) A ) X.n ^ D s f N Z c a s e 8 q e q X . b G I Q G q 7 V C @._ C P I ",
"F.L.#.[ | [ [ X.*.( a C.v.k.i.9.) S a % %   . . % $ , A g.F.f.8.6.9.a.n.a.f * o - : X g ( U U ^ ,.o.g.9.@.W + ~ q.d.7.#.X.) ( G ",
"U.8.| X.X.X.X.X...%.C ^ X.[ X.X.X.%.:.r X I ( X.g.b.L.E.d.] | ..X.| [ ..#._ j @ ` 8.c ) T.V.m.l.t.6.X.X.+.[ w [ #.[ ..X.X.X.#.*.",
"a.{ X.X.X.X.X.X.X.%.C C 6.X.X.X.X...X.#.0 R E.T.I.U.D.<.[ X.X.X.X.X.X.X.X.[ j + ) %.G P j._ [ [ ..X.*.%.%.Q 6 ) #.X.X.X.X.X.X.Q ",
"X.X.X.X.X.X.X.X.X.X.G j ] X.X.X.X.X.X.O.[ % H f.#.*.X.[ X.X.X.X.X.X.X.X.X.] f + %.8.F g f.! [ [ [ ] G a q r 9 #.X.X.X.X.X.[ I m ",
"X.X.X.X.X.X.X.X.X. .e.b S &.X.X.X.X.X...*.Q   A *...X.X.X.X.X.X.X.X.X.X.X.] f + G l - % 2 O + $ @ : r x F ( j ( X.X.X.X.X.F c m ",
" .] X.X.X.X.X.X.X.X.*.A Z %.X.X.X.X.X.X...6.c d 7.X.o.X.X.X.X.%.X.X.X.X.O.( y 1 I ( [ ) S M x g 1 $ X.7.#.6.s I #.X.X.X.X.#.X.L ",
"W G #.X.X.X.X.X.X.X.#.W C &.X.X.X.X.X.X.X.X.! g %.] Z X.X.#.S 2 W #.X.X.X.W 9 <.E.R.J.f.X.*.%.:.#.r y #.X.#.M I #.X.X.X.X.X.O.( ",
"X.X.X.X.X.X.X.X.X.X.X.] I +.X.X.X.X.X.X.X.X.Q 4 W X.( X.X.+.W 3 %.X.X.X.#.Z a J.J.7.| [ X.X.X...X.] a 6 ( w.W T #.X.X.X.X.X.X.! ",
"<.X.X.X.X.X.X.X.X.X.X.| W O.X.X.X.X.X.X.X.X.K = W %.X.X.X.X.X.] X.X.X.X.! l q g.X.[ X.X.X.X.X.X.X.X.] N 9 n S M %.X.X.X.X.X.X.] ",
"j.[ X.X.X.X.X.X.#. .#.W x #.X.X.X.X.X.X.X.X.B o X.%.X.X.X.X.X.X.X.X.X.X.( j 2 %.X.X.X.X.X.X.X.X.X.X.X.#.] n < j %.X.X.X.X.X.#.[ ",
"j.| X.X.X.X.X.X.x Y %.W U O.X.X.X.X.X.X.X.#.h + y.X.X.X.X.X.X.X.X.X.X.X.-.x X ( #.X.X.X.X.X.X.X.X.X.X.X.X.0.I q %.X.X.X.O.#.] W ",
"j.[ X.X.X.X.X.#.r W #.X.#.X.X.X.X.X.X.X.X.-.6 v l.[ X.X.X.X.X.X.X.X.X.X.X.f . G #.X.X.X.X.X.X.X.X.X.X.X.X.X.X.4 x *.#.O._ I [ W ",
"j.[ X.X.X.X.X.*.A W O.X.X.X.X.X.X.X.X.X.X.#.$ ^ f.[ X.X.X.X.X.X.X.X.X.X.( y X M X.X.X.X.X.X.X.X.X.X.X.X.X.X.#.a 1 c K A X.j.b.] ",
"j.[ X.X.X.X.X.O./ *.#.#.%.+.| X.#.*.#.X.X.F X <.7.{ X.X.X.[ X.X.| X.X.+.L u . f [ X.X.X.X.X.X.X.X.X.X.X.X.X.%.m j G 7 C.f.#.X.I ",
"t.X.X.X.X.X.X.X.[ T W I M p j F C M K Z M < 7 b.[ X.X.X.G Z G F N Z ! ] K u   r ( %.X.X.X.X.X.X.X.X.X.X.X.X.#.P O q 9.J.[ X.X.S ",
"X.X.X.X.X.X.X.X.X.] M x P ) X.X.] P c a a X 0 t.[ X.O.Y u 3 9 4 < < - - : $ . 4 X.6.] X.X.X.X.X.X.X.X.X.X.X.#.P X { V.*.X.X.[ N ",
"X.X.X.X.X.X.X.X.X.X.#.%.%.#.X.%.| U I ( I g 4 7...X.[ S C W / / / / G M Z I ( a S %.X.X.X.X.X.X.X.X.X.X.X.X.6.M < #.[ X.X.X.| N ",
"X.X.X.X.X.X.X.X.X.X.X.X.( Q  .c r H p.F.#.*.f D %...X.X.k.d.O.#.+.+.#.#.*.#.%.M / t.| X.X.X.X.X.X.X.X.X.X.%.T 9 [ X.X.X.X.O.( m ",
"X.X.X.X.X.X.X.X.X.X.X.O.( j 4 q X.m.E.N.[ #.P 9 X.*.#.O.X.| X.X.X.X.X.X.X.X.X.X.h E -.X.X.X.X.X.X.X.X.X.X.W 3 ) #.X.X.X.X.+.W m ",
"X.X.X.X.X.X.X.X.X.X.X.#.W + U v.F.U.A.l...X.Q & 9 F P ( X.X.X.X.X.X.X.X.X.X.X.*.I : K *. .W E W ! ! Z m P 9 g 6...X.X.X.X.X.m - ",
"X.X.X.X.X.X.X.X.X.X.X.%.D v E.U.n.G m  .X.O.E O 2 g $ W %.X.X.X.X.X.X.X.X.X.X.X.:.P < a r < - 1 9 : 6 &.w.Y E #.X.X.X.X.X.W $ . ",
"X.X.X.X.X.X.X.X.X.X.X.%.b H l.#.[ ] X.X.X.#.W O q f.n j #.X.X.X.X.X.X.X.X.X.X.X.W G F a   & ( X.F x j V j 4 P #.X.X.X.X.#.M X X ",
"#.X.( X.X.X.X.X.X.X.X.*.b y #.[ X.X.X.X.X.[ E , @ X.) 8 ! X.] X.X.X.X.X.X.+.] F M h y X $ A.R.y.%.8.*.( I x k #.X.X.X.X.X.f . X ",
"/ Q m G Y ! ( ( ( ] [ :.S r 6.#.#.*.#. .K b l +   1 q = G X.| X.X.X.O.X.X.X.N < y M { ^ q.f.Y E ( ( ) | X.8.S ! %.X.[ _ Y <   X ",
"g q 9 1 < < 1 < < 6 1 9 - % I W I Z h 9 6 q y c I W P $ l #.#.#.X.] Q W I a O ) F.F.v.f.t.I k #.o.' ' v v W V j C j q < 4 % + c ",
"X.( W W W W / Z & . a x ) 8.I s q < A / ) X.#.X.O.#.:.n : r f f a a 9 4 = ; p.T.e.| [ ..y.v.c.d.d.g.g.y.y.9.y.9.8.e.s p o.q.W l ",
"X.+.#.#.O.O.#.E = a 0.e.8.X.#.6./ P 7.+.+. .C G _ X.X.*.N = @ X . . . .   I E.V W #.X.X...[ [ [ [ [ [ ..X.X...X.X.#.h *.e.%. .Z ",
"X.X.X.X.X.+.4.E O M 7.| { X...X.A [ X.X.X.X.X.| X.X.X...w.N s Z 7 o . . . o.T.7 A #.X.X.X.X.X.X.X.X.X.X.X.X.X.X.X.] M 7.[ X.X.K ",
"X.X.#.#.] T C <   % G _ #.#.6.( C *.X.X.X.X.X.X.X.X.o.%.L c 2.y.q.] P - . q.G.%.#.X.X.X.X.X.X.X.X.X.X.X.X.X.X.X.#.! G #.X.X.X.F ",
"X.X.( r $ j M n M - X < M W G s W #.X.%.%.#.X.[ ..[ ( P s q.6.X.X.X.8.c . y.<.b #.X.X.X.X.X.X.X.X.X.X.W X.X.X.X.X.b K %.X.#.X.c ",
"O.7.a , Y #.#.#.#.Z u o   f I  .X.X.[ Z n V ) b.m.i.W 0 p m.] X.X.X.*.M . b.l.M X.X.X.X.X.X.X.X.X.X.4.<.[ X.X.[ Z 9 [  .W E Z 6 ",
"( j : I #.6.f.b.b.y.e.y.H q j ( #.*.x v c.A.U.P.7.+.*.*.y X.X.X.X.X.*.c X A.S.#.*.X.X... . .X.X.X.X.X.X.X.X.%.W b 9 j % % q c V ",
"a x W ( n A.S.v.v.j.e.d.J.v.H a I K G E.E.T.J.<.[ X.| -.s U -.X.X.X.#.f X C.v.( W G Z M m m M Z S Z Z Z F Z b a - O 4 n ( X.%.:.",
"X.*.X.E X ( O.] [ [ [ [ ] 6.b.j.X.9 { N.a.t.X.X.X.X.X.#.W V 8.X. .( E s @ m.*.! ] | | ) I I G M c m N N a + .   7 Q %.%.#.*.] F ",
" .%.g.q.n ] t.X.X.X.X.X.X...] ..7.Z c t.] ..X.X.X.X.X.X.X.q < 1 * % $   ; z.X.#.X.X.+.%.#.W I x q r 6 6 X .   p 8.O.X.#.[ Z f j ",
"N.N.t.y.e.G <. .X.X.X.X.X.X.X.X.X.S 4 ] O.X.X.X.X.X.X.X.#.y J } { { ,.U U ) I ] #.| ] I j D [ X.X.[ 9   X . + u.#.+.Q b f C c.6.",
"t.X.| [ #.C c 6.X.X.X.X.X.X.X.X.#.L 1 a #.X.X.X.X.X.X.X.:.A g.e.e.e.g.b.m.7.w - M M S ( ..*.X.X.X.*.s q ( E c l.X.L c p.d.N.C.[ ",
"6.X.X.X.+.Q A y.[ X.X.X.X.X.X.] I F y + ( &.X.X.X.X.X.%.n { m.) X.| ] ] ] Z - M V.6.X.#.X.X.X.X.X.%.a D  .( < Z P - C.I.g.#.{ W ",
"i...X.X.X.| V 7.X.X.X.X.X.#.:.L z M b X & ` O.X.X.X.#.M g 7.f.| X.X.&.*.W N % W R.7.X.X.X.X.X.X.#.[ y U W ) s % r o.F.[ [ X.+.! ",
"j.[ X.X.X.X.Q 7.X.X.X.X.X.X.I S m b 6   % M #.#.X.X...W #.O.O.X.X. .A G L l % g.g.S I [ #.#.O.#.G % H v.X.8.G 5 y.y.{ X.X.X.X.P ",
"d.| X.X.X.X.( [ +.X.X.X.X.] P m N 9 X { n.7.g h X.*.#.6.X.X.X.X.#.S c ( L i j e.X._ D C D W ] N 4 I j.X...%.N M 8.] X.X.X.X.( m ",
"X.X.X.X.X.X.[ Z ..X.X.X.X.X.G b S < v Y.X.O.K - 1 b S I X.X.o.X.X.X.6.#.S q ^ %.X.X.*.O.( G Z < { d.[ X.X.%.Z x <.O.#.#.+.#.P a ",
"X.X.X.X.X.X.X.m [ X.X.X.X.O.E b S * A b.] ! N m . C } C W ] W F N F I P Z 1 *.%.X.X.X.X.#.#.B s v.] X.X.X.-.Z x X.I I I I G M c ",
"X.X.X.X.X.X.X.G K #.X.X.X.X.F b N < 2.] B b b N - S Y S M m b b m b b b N - o.&.X.X.] Y G N z 6 #.X.X.X.X.X.b 1 N b b b b b m M "
};
